<?xml version="1.0"?>
    <svg width="260" height="200" xmlns="http://www.w3.org/2000/svg" xmlns:svg="http://www.w3.org/2000/svg">
     <g class="layer">
      <title>Layer 1</title>
      <svg x="-100">
      <polygon cx="178" cy="152" fill="#ffff00" id="svg_4" orient="point" point="5" r="0" r2="0" shape="star" strokeWidth="5" strokecolor="#000000"/>
      <polygon cx="181" cy="147" fill="#ffff00" id="svg_5" orient="point" point="5" r="0" r2="0" shape="star" strokeWidth="5" strokecolor="none"/>
      <polygon cx="181" cy="147" fill="#ffff00" id="svg_6" orient="point" point="5" r="0" r2="0" shape="star" strokeWidth="5" strokecolor="none" transform="rotate(164.055 105.748 -0.00000276554)"/>
      <g id="svg_25"> 
       <ellipse cx="132.500003" cy="99.906247" fill="#ffd4aa" id="svg_19" rx="122.499996" ry="87.999997" stroke="#000000" stroke-dasharray="null" stroke-linecap="null" stroke-linejoin="null" stroke-width="5"/>
       <g id="svg_21">
        <path d="m69.522684,71.798769c-32.132347,0 -57.485646,23.728433 -57.485646,23.728433s25.353299,23.731509 57.485646,23.731509c24.574049,0 57.485646,-23.731509 57.485646,-23.731509s-32.911597,-23.728433 -57.485646,-23.728433zm0,38.51487c-11.279961,0 -20.469148,-6.634979 -20.469148,-14.786437s9.189187,-14.786437 20.469148,-14.786437s20.469148,6.638055 20.469148,14.786437s-9.189187,14.786437 -20.469148,14.786437zm0,-23.417755c-6.595946,0 -11.948498,3.863484 -11.948498,8.631317c0,4.767834 5.348294,8.631317 11.948498,8.631317c6.600204,0 11.948498,-3.863484 11.948498,-8.631317c0,-4.764758 -5.348294,-8.631317 -11.948498,-8.631317z" fill="#000000" id="svg_12" stroke="#000000" stroke-dasharray="null" stroke-linecap="null" stroke-linejoin="null" stroke-width="5"/>
        <path d="m190.222602,69.758096c-32.132347,0 -57.485646,23.728433 -57.485646,23.728433s25.353299,23.731509 57.485646,23.731509c24.574049,0 57.485646,-23.731509 57.485646,-23.731509s-32.911597,-23.728433 -57.485646,-23.728433zm0,38.51487c-11.279961,0 -20.469148,-6.634979 -20.469148,-14.786437s9.189187,-14.786437 20.469148,-14.786437s20.469148,6.638055 20.469148,14.786437s-9.189187,14.786437 -20.469148,14.786437zm0,-23.417755c-6.595946,0 -11.948498,3.863484 -11.948498,8.631317c0,4.767834 5.348294,8.631317 11.948498,8.631317c6.600204,0 11.948498,-3.863484 11.948498,-8.631317c0,-4.764758 -5.348294,-8.631317 -11.948498,-8.631317z" fill="#000000" id="svg_20" stroke="#000000" stroke-dasharray="null" stroke-linecap="null" stroke-linejoin="null" stroke-width="5"/>
       </g>
       <path d="m99.262408,150.81006c-10.770375,-33.248013 -10.063834,-31.066947 -9.253902,-28.566694c0.887474,2.739642 1.826655,5.638866 2.791679,8.617886c0.965024,2.97902 1.904197,5.878244 2.791679,8.617886c1.516465,4.681319 2.100218,6.483358 2.567655,7.926324c0.364037,1.12378 0.6376,1.968283 0.833628,2.573397c0.131403,0.405623 0.2111,0.651664 0.252029,0.777999c0.017233,0.053201 0.017233,0.053201 0.017233,0.053201c0,0 0,0 0,0c0,0 0,0 0,0c0,0 0,0 0,0c0,0 0,0 0,0c0,0 0,0.000124 0,0.000981c0,0.002345 0,0.0069 0,0.014408c0,0.011206 0,0.026843 0,0.047655c0,0.060101 0,0.100484 0,0.146786c0,0.050732 0,0.10443 0,0.159593c0,0.055163 0,0.108861 0,0.159593c0,0.086685 -0.276005,0.614731 0.004475,1.209236c0.262746,0.556929 1.06394,0.75243 1.561042,1.235842c0.489236,0.475769 0.845718,1.034389 1.469407,1.497892c0.591209,0.439365 0.810137,1.075471 1.296923,1.660428c0.349724,0.420256 1.175501,0.881189 1.732699,1.493326c0.42895,0.471248 1.020038,1.023375 1.690124,1.301479c0.832005,0.345308 1.387284,0.826973 2.066586,1.326958c0.551464,0.405893 1.411723,0.807367 2.307836,0.828495c0.894323,0.021082 1.832056,-0.1947 2.618034,0c0.785971,0.1947 1.380093,0.738845 2.253656,0.738845c0.780601,0 1.725744,0 2.486631,0c0.988386,0 1.785264,-0.233471 2.736005,0.00788c0.762943,0.193685 1.249979,0.726556 2.154906,0.730964c0.960192,0.004667 1.72268,-0.004307 2.630451,0.123145c0.789058,0.110788 1.588523,0.335432 2.651174,0.492556c0.700002,0.103505 1.553396,0.105197 2.550421,0.124125c0.761418,0.014453 1.579026,0.367765 2.46559,0.64809c0.77404,0.244745 1.686142,0.089774 2.676348,0.089774c0.646891,0 1.619864,0 2.415218,0c0.994188,0 1.798667,-0.041894 2.584888,0.063044c1.008638,0.134621 1.70091,0.515847 2.769144,0.649206c0.93014,0.116121 1.610595,0.026595 2.350259,0.026595c1.101228,0 1.930381,0 2.83411,0c0.894763,0 1.789527,0 2.684305,0c0.894763,0 1.789542,0 2.684305,0c0.880185,0 1.825328,0 2.586215,0c0.992868,0 1.788207,0 2.782395,0c0.795354,0 1.792803,0.040857 2.564188,-0.015389c0.857369,-0.062525 1.594181,-0.5903 2.442554,-0.723456c0.840439,-0.131916 1.777618,0.073156 2.714797,-0.123145c0.667652,-0.139841 1.483591,-0.528542 2.387365,-0.616681c0.718411,-0.070056 1.411518,-0.589996 2.124088,-0.734538c0.859766,-0.174396 1.665496,-0.358002 2.447864,-0.742171c0.642287,-0.315387 1.416934,-0.56118 2.414717,-0.699927c0.73754,-0.102558 1.70911,-0.421361 2.489946,-0.688112c0.853592,-0.29161 1.535321,-0.56685 2.171298,-1.038324c0.628452,-0.465882 0.815242,-1.032721 1.508516,-1.329923c0.780972,-0.3348 1.593423,-0.830005 2.020188,-1.415627c0.358561,-0.492037 0.982917,-0.909667 1.159891,-1.539752c0.167569,-0.596625 0.772811,-0.990376 1.214231,-1.579278c0.368755,-0.491947 0.766106,-1.050173 0.774146,-1.738623c0.007342,-0.628541 0.773251,-1.006002 0.992868,-1.582119c0.232679,-0.61039 -0.310836,-1.361512 0.011924,-2.001778c0.263247,-0.522217 0.981339,-0.902857 0.983584,-1.588016c0.002048,-0.628519 0,-1.313666 0,-2.001778l0.220042,-0.529015l0.774146,-0.042232l0,-0.681224" fill="none" id="svg_24" stroke="#000000" stroke-dasharray="null" stroke-linecap="null" stroke-linejoin="null" stroke-width="5" transform="rotate(-18.107 140.66 143.297)"/>
      </g>
     <animate attributeName="x" to="1000" dur="3s" repeatCount="5" />
    </svg>  
     </g>
    </svg>